<?xml version="1.0" standalone="no"?>
<!DOCTYPE svg PUBLIC "-//W3C//DTD SVG 20010904//EN"
 "http://www.w3.org/TR/2001/REC-SVG-20010904/DTD/svg10.dtd">
<svg version="1.0" xmlns="http://www.w3.org/2000/svg"
 width="1536.000000pt" height="1536.000000pt" viewBox="0 0 1536.000000 1536.000000"
 preserveAspectRatio="xMidYMid meet">
<metadata>
Created by potrace 1.11, written by Peter Selinger 2001-2013
</metadata>
<g transform="translate(0.000000,1536.000000) scale(0.100000,-0.100000)"
fill="#000000" stroke="none">
<path d="M2850 10145 l0 -433 995 0 995 0 0 433 0 433 -995 0 -995 0 0 -433z"/>
<path d="M5565 10572 c-3 -3 -5 -198 -5 -433 l0 -427 994 -1 993 0 2 433 1
433 -990 0 c-544 0 -992 -2 -995 -5z"/>
<path d="M8406 10571 c-2 -3 -3 -198 -3 -433 l0 -426 994 0 993 0 0 432 0 433
-990 0 c-545 0 -992 -3 -994 -6z"/>
<path d="M12303 10571 c-5 -3 -9 -189 -9 -431 l1 -425 975 -2 c536 -2 984 -1
995 2 20 4 20 11 20 433 l0 429 -987 0 c-542 0 -990 -2 -995 -6z"/>
<path d="M934 8930 l-31 -5 0 -427 0 -428 996 0 996 0 -3 427 c-1 234 -4 428
-7 431 -6 6 -1913 8 -1951 2z"/>
<path d="M10378 8932 c-18 -2 -28 -9 -29 -20 0 -9 0 -201 -1 -427 l0 -410 995
-3 995 -2 -1 430 0 430 -26 1 c-81 3 -1911 3 -1933 1z"/>
<path d="M903 6860 l0 -430 26 -1 c132 -4 1953 0 1958 4 4 5 7 663 4 825 l-1
32 -993 0 -994 0 0 -430z"/>
<path d="M10350 7268 c-4 -171 -4 -838 0 -839 8 0 1964 -1 1976 0 8 1 11 124
11 431 l1 430 -994 0 -994 0 0 -22z"/>
<path d="M2850 5216 l0 -434 995 1 995 0 0 433 0 432 -995 1 -995 0 0 -433z"/>
<path d="M5562 5217 l3 -432 990 0 990 0 2 432 1 432 -994 0 -994 -1 2 -431z"/>
<path d="M8406 5642 c-2 -4 -3 -199 -3 -433 l1 -426 993 0 993 0 0 433 0 433
-990 -1 c-544 0 -992 -3 -994 -6z"/>
<path d="M12304 5642 c-7 -5 -10 -161 -10 -432 l1 -425 975 -2 c536 -1 984 0
995 2 20 4 20 11 19 427 -1 233 -2 426 -3 430 -1 9 -1964 9 -1977 0z"/>
</g>
</svg>
